<?xml version="1.0" encoding="UTF-8" standalone="no"?>
<svg
   xmlns:dc="http://purl.org/dc/elements/1.1/"
   xmlns:cc="http://creativecommons.org/ns#"
   xmlns:rdf="http://www.w3.org/1999/02/22-rdf-syntax-ns#"
   xmlns:svg="http://www.w3.org/2000/svg"
   xmlns="http://www.w3.org/2000/svg"
   xmlns:xlink="http://www.w3.org/1999/xlink"
   height="36.799999"
   width="22.237768"
   xml:space="preserve"
   viewBox="0 0 22.237768 36.799999"
   y="0px"
   x="0px"
   id="Слой_1"
   version="1.1"><metadata
     id="metadata3355"><rdf:RDF><cc:Work
         rdf:about=""><dc:format>image/svg+xml</dc:format><dc:type
           rdf:resource="http://purl.org/dc/dcmitype/StillImage" /><dc:title></dc:title></cc:Work></rdf:RDF></metadata><defs
     id="defs3353" /><style
     id="style3337"
     type="text/css">
	.st0{clip-path:url(#SVGID_2_);}
</style><g
     transform="translate(-294.03723,-378)"
     id="g3339"><g
       id="g3341"><defs
         id="defs3343"><rect
           height="37"
           width="22.799999"
           y="378"
           x="294"
           id="SVGID_1_" /></defs><clipPath
         id="SVGID_2_"><use
           height="100%"
           width="100%"
           y="0"
           x="0"
           id="use3347"
           style="overflow:visible"
           xlink:href="#SVGID_1_" /></clipPath><path
         d="m 298.6,414.8 c -1.1,0 -2.3,-0.4 -3.1,-1.3 -1.8,-1.7 -1.9,-4.6 -0.2,-6.5 l 10.2,-10.7 -10.2,-10.7 c -1.7,-1.8 -1.7,-4.7 0.1,-6.5 1.8,-1.7 4.7,-1.7 6.4,0.1 L 315,393 c 1.7,1.8 1.7,4.5 0,6.3 l -13.2,13.9 c -0.8,1.1 -2,1.6 -3.2,1.6 l 0,0 z m 0,0"
          /></g></g></svg>