<?xml version="1.0" encoding="UTF-8" standalone="no"?>
<svg
   xmlns:dc="http://purl.org/dc/elements/1.1/"
   xmlns:cc="http://creativecommons.org/ns#"
   xmlns:rdf="http://www.w3.org/1999/02/22-rdf-syntax-ns#"
   xmlns:svg="http://www.w3.org/2000/svg"
   xmlns="http://www.w3.org/2000/svg"
   xmlns:xlink="http://www.w3.org/1999/xlink"
   height="78.900002"
   width="93"
   xml:space="preserve"
   viewBox="0 0 93 78.900002"
   y="0px"
   x="0px"
   id="Слой_1"
   version="1.1"><metadata
     id="metadata3359"><rdf:RDF><cc:Work
         rdf:about=""><dc:format>image/svg+xml</dc:format><dc:type
           rdf:resource="http://purl.org/dc/dcmitype/StillImage" /><dc:title></dc:title></cc:Work></rdf:RDF></metadata><defs
     id="defs3357" /><style
     id="style3337"
     type="text/css">
	.st0{clip-path:url(#SVGID_2_);}
</style><g
     transform="translate(-259,-357.1)"
     id="g3339"><path
       id="path3341"
       d="m 281.9,384.8 47.2,0 c 1.8,0 3.3,-1.4 3.3,-3.3 0,-1.8 -1.4,-3.3 -3.3,-3.3 l -47.2,0 c -1.8,0 -3.3,1.4 -3.3,3.3 0,1.9 1.4,3.3 3.3,3.3 l 0,0 z m 0,0" /><g
       id="g3343"><defs
         id="defs3345"><rect
           height="79.900002"
           width="92.900002"
           y="357"
           x="259"
           id="SVGID_1_" /></defs><clipPath
         id="SVGID_2_"><use
           height="100%"
           width="100%"
           y="0"
           x="0"
           id="use3349"
           style="overflow:visible"
           xlink:href="#SVGID_1_" /></clipPath><path
         id="path3351"
         d="m 281.9,400.7 47.2,0 c 1.8,0 3.3,-1.4 3.3,-3.3 0,-1.8 -1.4,-3.3 -3.3,-3.3 l -47.2,0 c -1.8,0 -3.3,1.4 -3.3,3.3 0,1.8 1.4,3.3 3.3,3.3 l 0,0 z m 0,0" /><path
         id="path3353"
         d="m 262.3,421.9 10.6,0 0,10.8 c 0,1.3 0.7,2.4 1.8,3 0.5,0.2 1,0.3 1.4,0.3 0.7,0 1.4,-0.2 2,-0.6 l 17.6,-13.4 53,0 c 1.8,0 3.3,-1.4 3.3,-3.3 l 0,-58.3 c 0,-1.8 -1.4,-3.3 -3.3,-3.3 l -86.4,0 c -1.8,0 -3.3,1.4 -3.3,3.3 l 0,58.2 c 0,1.8 1.5,3.3 3.3,3.3 l 0,0 z m 3.3,-58.3 79.8,0 0,51.7 -50.7,0 c -0.7,0 -1.4,0.2 -2,0.6 l -13.3,10.1 0,-7.4 c 0,-1.8 -1.4,-3.3 -3.3,-3.3 l -10.6,0 0,-51.7 z m 0,0" /></g></g></svg>