<?xml version="1.0" encoding="UTF-8" standalone="no"?>
<svg
   xmlns:dc="http://purl.org/dc/elements/1.1/"
   xmlns:cc="http://creativecommons.org/ns#"
   xmlns:rdf="http://www.w3.org/1999/02/22-rdf-syntax-ns#"
   xmlns:svg="http://www.w3.org/2000/svg"
   xmlns="http://www.w3.org/2000/svg"
   height="30.4"
   width="30.4"
   xml:space="preserve"
   viewBox="0 0 30.4 30.4"
   y="0px"
   x="0px"
   id="Слой_1"
   version="1.1"><metadata
     id="metadata3345"><rdf:RDF><cc:Work
         rdf:about=""><dc:format>image/svg+xml</dc:format><dc:type
           rdf:resource="http://purl.org/dc/dcmitype/StillImage" /><dc:title></dc:title></cc:Work></rdf:RDF></metadata><defs
     id="defs3343" /><g
     transform="translate(-290,-381)"
     id="g3337"><path
       id="path3339"
       d="m 307.6,397 0,0 c -0.9,0 -1.6,0.7 -1.6,1.6 0,0.9 0.7,1.6 1.6,1.6 0.9,0 1.6,-0.7 1.6,-1.6 0,-0.9 -0.7,-1.6 -1.6,-1.6 l 0,0 z m -4.8,-1.6 c 0.9,0 1.6,-0.7 1.6,-1.6 0,-0.9 -0.7,-1.6 -1.6,-1.6 -0.9,0 -1.6,0.7 -1.6,1.6 0,0.9 0.7,1.6 1.6,1.6 l 0,0 z m 4.8,-3.2 0,0 c -0.9,0 -1.6,0.7 -1.6,1.6 0,0.9 0.7,1.6 1.6,1.6 0.9,0 1.6,-0.7 1.6,-1.6 0,-0.9 -0.7,-1.6 -1.6,-1.6 l 0,0 z m 1.6,-8 -8,0 0,3.2 8,0 0,-3.2 z m 3.2,11.2 c 0.9,0 1.6,-0.7 1.6,-1.6 0,-0.9 -0.7,-1.6 -1.6,-1.6 -0.9,0 -1.6,0.7 -1.6,1.6 0,0.9 0.7,1.6 1.6,1.6 l 0,0 z m 0,4.8 c 0.9,0 1.6,-0.7 1.6,-1.6 0,-0.9 -0.7,-1.6 -1.6,-1.6 -0.9,0 -1.6,0.7 -1.6,1.6 0,0.9 0.7,1.6 1.6,1.6 l 0,0 z m -9.6,0 c 0.9,0 1.6,-0.7 1.6,-1.6 0,-0.9 -0.7,-1.6 -1.6,-1.6 -0.9,0 -1.6,0.7 -1.6,1.6 0,0.9 0.7,1.6 1.6,1.6 l 0,0 z M 298,405 c 0.9,0 1.6,-0.7 1.6,-1.6 0,-0.9 -0.7,-1.6 -1.6,-1.6 -0.9,0 -1.6,0.7 -1.6,1.6 0,0.9 0.7,1.6 1.6,1.6 l 0,0 z m 19.2,-20.8 -1.6,0 0,3.2 1.6,0 0,20.8 -24,0 0,-20.8 1.6,0 0,-3.2 -1.6,0 c -1.8,0 -3.2,1.4 -3.2,3.2 l 0,20.8 c 0,1.8 1.4,3.2 3.2,3.2 l 24,0 c 1.8,0 3.2,-1.4 3.2,-3.2 l 0,-20.8 c 0,-1.8 -1.4,-3.2 -3.2,-3.2 l 0,0 z m -19.2,16 c 0.9,0 1.6,-0.7 1.6,-1.6 0,-0.9 -0.7,-1.6 -1.6,-1.6 -0.9,0 -1.6,0.7 -1.6,1.6 0,0.9 0.7,1.6 1.6,1.6 l 0,0 z m 0,-4.8 c 0.9,0 1.6,-0.7 1.6,-1.6 0,-0.9 -0.7,-1.6 -1.6,-1.6 -0.9,0 -1.6,0.7 -1.6,1.6 0,0.9 0.7,1.6 1.6,1.6 l 0,0 z m 4.8,9.6 c 0.9,0 1.6,-0.7 1.6,-1.6 0,-0.9 -0.7,-1.6 -1.6,-1.6 -0.9,0 -1.6,0.7 -1.6,1.6 0,0.9 0.7,1.6 1.6,1.6 l 0,0 z M 298,387.4 c 0.9,0 1.6,-0.7 1.6,-1.6 l 0,-3.2 c 0,-0.9 -0.7,-1.6 -1.6,-1.6 -0.9,0 -1.6,0.7 -1.6,1.6 l 0,3.2 c 0,0.9 0.7,1.6 1.6,1.6 l 0,0 z m 14.4,0 c 0.9,0 1.6,-0.7 1.6,-1.6 l 0,-3.2 c 0,-0.9 -0.7,-1.6 -1.6,-1.6 -0.9,0 -1.6,0.7 -1.6,1.6 l 0,3.2 c 0,0.9 0.7,1.6 1.6,1.6 l 0,0 z m 0,0" /></g></svg>