<?xml version="1.0" encoding="UTF-8" standalone="no"?>
<svg
   xmlns:dc="http://purl.org/dc/elements/1.1/"
   xmlns:cc="http://creativecommons.org/ns#"
   xmlns:rdf="http://www.w3.org/1999/02/22-rdf-syntax-ns#"
   xmlns:svg="http://www.w3.org/2000/svg"
   xmlns="http://www.w3.org/2000/svg"
   xmlns:xlink="http://www.w3.org/1999/xlink"
   height="385.79999"
   width="385.79999"
   xml:space="preserve"
   viewBox="0 0 385.79999 385.79999"
   y="0px"
   x="0px"
   id="Слой_1"
   version="1.1"><metadata
     id="metadata3351"><rdf:RDF><cc:Work
         rdf:about=""><dc:format>image/svg+xml</dc:format><dc:type
           rdf:resource="http://purl.org/dc/dcmitype/StillImage" /><dc:title></dc:title></cc:Work></rdf:RDF></metadata><defs
     id="defs3349" /><g
     transform="translate(-113,-203)"
     id="g3337"><defs
       id="defs3339"><rect
         height="386"
         width="385.89999"
         y="203"
         x="113"
         id="SVGID_1_" /></defs><clipPath
       id="SVGID_2_"><use
         height="100%"
         width="100%"
         y="0"
         x="0"
         id="use3343"
         style="overflow:visible"
         xlink:href="#SVGID_1_" /></clipPath><path
       d="m 468.8,377.8 -72.4,72.4 c -40,40 -104.8,40 -144.8,0 -6.3,-6.3 -11.2,-13.3 -15.6,-20.6 l 33.7,-33.7 c 1.6,-1.6 3.6,-2.5 5.5,-3.6 2.3,8 6.4,15.5 12.6,21.7 20,20 52.5,19.9 72.4,0 l 72.4,-72.4 c 20,-20 20,-52.4 0,-72.4 -20,-20 -52.4,-20 -72.4,0 L 334.5,295 c -20.9,-8.1 -43.4,-10.3 -65.3,-7.1 L 324,233 c 40,-40 104.8,-40 144.8,0 40,40 40,104.8 0,144.8 l 0,0 z m -191.4,119.1 -25.8,25.8 c -20,19.9 -52.5,19.9 -72.4,0 -20,-20 -20,-52.4 0,-72.4 l 72.4,-72.4 c 20,-20 52.4,-20 72.4,0 6.2,6.2 10.3,13.8 12.6,21.7 1.9,-1.1 3.9,-2 5.5,-3.6 l 33.7,-33.6 c -4.3,-7.3 -9.3,-14.4 -15.6,-20.7 -40,-40 -104.8,-40 -144.8,0 L 143,414 c -40,40 -40,104.8 0,144.8 40,40 104.8,40 144.8,0 l 54.9,-54.9 c -21.9,3.3 -44.5,1.1 -65.3,-7 l 0,0 z m 0,0"
       /></g></svg>