<?xml version="1.0" encoding="UTF-8" standalone="no"?>
<svg
   xmlns:dc="http://purl.org/dc/elements/1.1/"
   xmlns:cc="http://creativecommons.org/ns#"
   xmlns:rdf="http://www.w3.org/1999/02/22-rdf-syntax-ns#"
   xmlns:svg="http://www.w3.org/2000/svg"
   xmlns="http://www.w3.org/2000/svg"
   xmlns:xlink="http://www.w3.org/1999/xlink"
   height="197.7"
   width="365.39999"
   xml:space="preserve"
   viewBox="0 0 365.39999 197.7"
   y="0px"
   x="0px"
   id="Слой_1"
   version="1.1"><metadata
     id="metadata3357"><rdf:RDF><cc:Work
         rdf:about=""><dc:format>image/svg+xml</dc:format><dc:type
           rdf:resource="http://purl.org/dc/dcmitype/StillImage" /><dc:title></dc:title></cc:Work></rdf:RDF></metadata><defs
     id="defs3355" /><style
     id="style3337"
     type="text/css">
	.st0{clip-path:url(#SVGID_2_);}
</style><g
     transform="translate(-123.1,-297)"
     id="g3339"><g
       id="g3341"><defs
         id="defs3343"><rect
           height="197.89999"
           width="366"
           y="297"
           x="123"
           id="SVGID_1_" /></defs><clipPath
         id="SVGID_2_"><use
           height="100%"
           width="100%"
           y="0"
           x="0"
           id="use3347"
           style="overflow:visible"
           xlink:href="#SVGID_1_" /></clipPath><path
         d="m 482.2,387.9 c -0.7,-0.9 -18.4,-23.1 -48.8,-45.5 -40.6,-29.8 -84.7,-45.6 -127.6,-45.6 -42.9,0 -87.1,15.8 -127.6,45.6 -30.4,22.3 -48.1,44.5 -48.8,45.5 l -6.3,7.9 6.3,7.9 c 0.7,0.9 18.4,23.1 48.8,45.4 40.6,29.8 84.7,45.6 127.6,45.6 42.9,0 87.1,-15.8 127.6,-45.6 30.4,-22.3 48.1,-44.5 48.8,-45.4 l 6.3,-7.9 -6.3,-7.9 z m -176.5,77.2 c -38.2,0 -69.3,-31.1 -69.3,-69.3 0,-6 0.8,-11.8 2.2,-17.3 l -15.8,-2.7 c -1.6,6.4 -2.4,13.1 -2.4,20 0,24.7 10.5,47 27.4,62.6 -21.6,-8 -40.1,-19.2 -53.9,-29.4 -17.2,-12.6 -30.1,-25.3 -37.5,-33.2 7.4,-7.9 20.3,-20.6 37.5,-33.2 13.9,-10.1 32.3,-21.4 53.9,-29.4 l 10.6,12 c 12.4,-11.6 29.1,-18.7 47.3,-18.7 38.2,0 69.3,31.1 69.3,69.3 0,38.2 -31.1,69.3 -69.3,69.3 l 0,0 z M 417.6,429 c -13.9,10.1 -32.3,21.4 -53.9,29.4 16.8,-15.6 27.4,-37.9 27.4,-62.6 0,-24.7 -10.5,-47 -27.4,-62.6 21.6,8 40.1,19.2 53.9,29.4 17.2,12.6 30.1,25.3 37.5,33.2 -7.4,7.9 -20.3,20.6 -37.5,33.2 l 0,0 z m 0,0"
         /></g><path
       d="m 261.6,382.3 c -1.3,4.3 -2,8.8 -2,13.5 0,25.5 20.6,46.1 46.1,46.1 25.5,0 46.1,-20.6 46.1,-46.1 0,-25.5 -20.6,-46.1 -46.1,-46.1 -12.4,0 -23.7,4.9 -31.9,12.9 l 22.7,25.6 -34.9,-5.9 z m 0,0" /></g></svg>