<?xml version="1.0" encoding="UTF-8" standalone="no"?>
<svg
   xmlns:dc="http://purl.org/dc/elements/1.1/"
   xmlns:cc="http://creativecommons.org/ns#"
   xmlns:rdf="http://www.w3.org/1999/02/22-rdf-syntax-ns#"
   xmlns:svg="http://www.w3.org/2000/svg"
   xmlns="http://www.w3.org/2000/svg"
   height="22.473"
   width="19.684"
   xml:space="preserve"
   viewBox="0 0 19.684 22.473"
   y="0px"
   x="0px"
   id="Слой_1"
   version="1.1"><metadata
     id="metadata4178"><rdf:RDF><cc:Work
         rdf:about=""><dc:format>image/svg+xml</dc:format><dc:type
           rdf:resource="http://purl.org/dc/dcmitype/StillImage" /><dc:title></dc:title></cc:Work></rdf:RDF></metadata><defs
     id="defs4176" /><g
     transform="translate(-296,-385)"
     id="g4166"><path
       id="path4168"
       d="m 302.379,401.536 -0.875,-1.418 -1.848,0.332 2.43,-4.313 -4.738,0 0,11.336 8.074,0 0,-11.336 -3.043,5.399 z m 0,0" /><path
       id="path4170"
       d="m 315.668,390.727 -5.359,0 c 0.312,-0.16 0.593,-0.328 0.839,-0.508 0.954,-0.683 1.461,-1.551 1.457,-2.41 0,-0.703 -0.332,-1.711 -0.816,-2.133 -0.484,-0.426 -1.129,-0.676 -1.816,-0.676 -0.735,0 -1.418,0.254 -2.004,0.645 -0.879,0.59 -1.567,1.863 -2.055,2.836 -0.027,0.051 -0.051,0.098 -0.074,0.144 -0.18,-0.375 -0.391,-1.129 -0.629,-1.468 -0.414,-0.594 -0.914,-1.121 -1.5,-1.512 -0.586,-0.391 -1.266,-0.645 -2,-0.645 -0.731,0.004 -1.402,0.309 -1.902,0.782 -0.497,0.468 -0.848,1.523 -0.848,2.273 -0.004,0.441 0.125,0.902 0.387,1.32 0.332,0.524 0.859,0.981 1.59,1.352 l -4.938,0 0.012,4.508 9.269,0 0,-4.508 1.129,0 0,4.508 9.274,0 -0.016,-4.508 z m -14.41,-1.406 c -0.371,-0.239 -0.602,-0.473 -0.735,-0.684 -0.132,-0.211 -0.179,-0.582 -0.179,-0.762 0,-0.304 0.148,-0.836 0.418,-1.086 0.261,-0.25 0.621,-0.406 0.941,-0.406 l 0.008,0 c 0.414,0.004 0.82,0.141 1.23,0.414 0.614,0.403 1.192,1.5 1.59,2.305 0.211,0.41 0.371,0.84 0.477,1.258 -1.856,-0.192 -3.055,-0.602 -3.75,-1.039 l 0,0 z m 6.344,-0.981 c 0.336,-0.48 0.73,-1.269 1.14,-1.543 0.406,-0.273 0.817,-0.41 1.231,-0.414 l 0.004,0 c 0.343,0 0.671,0.137 0.898,0.336 0.227,0.203 0.348,0.57 0.348,0.832 -0.008,0.309 -0.164,1.016 -0.887,1.543 -0.68,0.496 -1.867,1.008 -3.688,1.363 0.172,-0.722 0.508,-1.488 0.954,-2.117 l 0,0 z m 0,0" /><path
       id="path4172"
       d="m 312.039,400.43 -1.848,-0.312 -0.871,1.437 -3.008,-5.344 0,11.262 8.036,0 0,-11.336 -4.739,0 2.43,4.293 z m 0,0" /></g></svg>