<svg xmlns="http://www.w3.org/2000/svg" xmlns:xlink="http://www.w3.org/1999/xlink" height="182.2" width="185.9" viewBox="0 0 185.89999 182.2" id="Слой_1"><style id="style4189">.st0{clip-path:url(#SVGID_2_);}</style><g id="g4191"><path id="path4193" d="M79.1 98.3c0-5.8-4.7-10.5-10.5-10.5H57.7c-5.8 0-10.5 4.7-10.5 10.5v73.3c0 5.8 4.7 10.5 10.5 10.5h10.9c5.8 0 10.5-4.7 10.5-10.5V98.3zm0 0"/><path id="path4195" d="M31.9 123.9c0-6.3-5.1-11.3-11.3-11.3h-9.3C5 112.6 0 117.7 0 123.9v46.9c0 6.3 5.1 11.3 11.3 11.3h9.3c6.3 0 11.3-5.1 11.3-11.3v-46.9zm0 0"/><g id="g4197" transform="translate(-213.1 -305)"><defs id="defs4199"><path id="SVGID_1_" d="M213 305h186v183H213z"/></defs><clipPath id="SVGID_2_"><use height="100%" width="100%" id="use4203" xlink:href="#SVGID_1_" overflow="visible"/></clipPath><path d="M338.6 375.3c0-5.8-4.7-10.5-10.5-10.5h-10.9c-5.8 0-10.5 4.7-10.5 10.5v101.3c0 5.8 4.7 10.5 10.5 10.5h10.9c5.8 0 10.5-4.7 10.5-10.5V375.3zm0 0"/><path d="M397.3 334.9l-20.5-26.3c-1.8-2.3-4.3-3.6-6.9-3.6-2.6 0-5.1 1.3-6.9 3.6l-20.5 26.3c-1.8 2.3-2.2 4.7-1.2 6.8 1.1 2.3 3.7 3.6 7.1 3.6h5.5V477c0 5.8 4.7 10.2 10.5 10.2h11c5.8 0 10.4-4.4 10.4-10.2V345.2l5.6.1c3.3 0 6-1.3 7.1-3.6 1-2.1.5-4.5-1.2-6.8zm0 0"/></g></g></svg>