<?xml version="1.0" encoding="UTF-8" standalone="no"?>
<svg
   xmlns:dc="http://purl.org/dc/elements/1.1/"
   xmlns:cc="http://creativecommons.org/ns#"
   xmlns:rdf="http://www.w3.org/1999/02/22-rdf-syntax-ns#"
   xmlns:svg="http://www.w3.org/2000/svg"
   xmlns="http://www.w3.org/2000/svg"
   height="512.00104"
   width="450.88702"
   xml:space="preserve"
   viewBox="-49 141 450.88702 512.00104"
   y="0px"
   x="0px"
   id="Capa_1"
   version="1.1"><metadata
     id="metadata4240"><rdf:RDF><cc:Work
         rdf:about=""><dc:format>image/svg+xml</dc:format><dc:type
           rdf:resource="http://purl.org/dc/dcmitype/StillImage" /><dc:title></dc:title></cc:Work></rdf:RDF></metadata><defs
     id="defs4238" /><path
     id="path4224"
     d="m 296.68,261.22903 30.059,0 c 8.307,0 15.03,-6.722 15.03,-15.03 0,-8.307 -6.722,-15.03 -15.03,-15.03 l -30.059,0 c -8.307,0 -15.03,6.722 -15.03,15.03 0,8.308 6.723,15.03 15.03,15.03 z" /><path
     id="path4226"
     d="m 147.97,192.80403 c 3.708,7.397 12.69,10.436 20.167,6.722 7.427,-3.713 10.436,-12.74 6.722,-20.167 l -15.03,-30.059 c -3.742,-7.427 -12.74,-10.406 -20.167,-6.722 -7.427,3.713 -10.436,12.74 -6.722,20.167 l 15.03,30.059 z" /><path
     id="path4228"
     d="m 244.869,199.52603 c 7.499,3.724 16.47,0.65 20.167,-6.722 l 15.03,-30.059 c 3.713,-7.427 0.704,-16.453 -6.722,-20.167 -7.398,-3.684 -16.453,-0.704 -20.167,6.722 l -15.03,30.059 c -3.713,7.427 -0.705,16.454 6.722,20.167 z" /><path
     id="path4230"
     d="m 86.266,261.22903 30.059,0 c 8.307,0 15.03,-6.722 15.03,-15.03 0,-8.307 -6.722,-15.03 -15.03,-15.03 l -30.059,0 c -8.307,0 -15.03,6.722 -15.03,15.03 10e-4,8.308 6.723,15.03 15.03,15.03 z" /><path
     id="path4232"
     d="m 26.148,382.46803 -60.118,0 c -8.3,0 -15.03,6.729 -15.03,15.03 l 0,240.472 c 0,8.3 6.729,15.03 15.03,15.03 l 60.118,0 c 8.3,0 15.03,-6.729 15.03,-15.03 l 0,-240.473 c -10e-4,-8.3 -6.729,-15.029 -15.03,-15.029 z" /><path
     id="path4234"
     d="m 401.588,422.30803 c -2.651,-23.315 -24.43,-39.84 -47.895,-39.84 l -117.174,0 c 9.958,-17.831 15.303,-68.264 15.066,-88.866 -0.393,-34.102 -28.634,-61.43 -62.737,-61.43 l -12.404,0 c -8.307,0 -15.03,6.722 -15.03,15.03 0,34.755 -13.533,97.487 -39.056,123.011 -17.179,17.179 -31.865,23.404 -51.122,33.028 l 0,225.518 c 29.483,9.827 66.917,24.242 123.974,24.242 l 98.316,0 c 32.395,0 57.625,-30.003 45.072,-61.703 19.125,-5.21 33.229,-22.75 33.229,-43.504 0,-5.857 -1.13,-11.463 -3.17,-16.615 32.229,-8.781 44.092,-48.576 21.723,-73.563 8.219,-9.181 12.751,-21.739 11.208,-35.308 z" /></svg>