<?xml version="1.0" encoding="UTF-8" standalone="no"?>
<svg
   xmlns:dc="http://purl.org/dc/elements/1.1/"
   xmlns:cc="http://creativecommons.org/ns#"
   xmlns:rdf="http://www.w3.org/1999/02/22-rdf-syntax-ns#"
   xmlns:svg="http://www.w3.org/2000/svg"
   xmlns="http://www.w3.org/2000/svg"
   height="347.29999"
   width="266.60001"
   xml:space="preserve"
   viewBox="0 0 266.60001 347.29999"
   y="0px"
   x="0px"
   id="Слой_1"
   version="1.1"><metadata
     id="metadata3366"><rdf:RDF><cc:Work
         rdf:about=""><dc:format>image/svg+xml</dc:format><dc:type
           rdf:resource="http://purl.org/dc/dcmitype/StillImage" /><dc:title></dc:title></cc:Work></rdf:RDF></metadata><defs
     id="defs3364" /><g
     transform="translate(-172,-223)"
     id="g3356"><path
       id="path3358"
       d="m 305.3,318.5 c -19.9,0 -36,16.1 -36,36 0,19.8 16.1,36 36,36 19.8,0 36,-16.2 36,-36 0,-19.8 -16.2,-36 -36,-36 l 0,0 z m 0,0" /><path
       id="path3360"
       d="M 305.3,223 C 231.8,223 172,282.8 172,356.3 c 0,31.1 10.7,59.8 28.7,82.5 L 305.3,570.3 409.9,438.8 c 18,-22.7 28.7,-51.4 28.7,-82.5 C 438.6,282.8 378.8,223 305.3,223 l 0,0 z m 0,191.5 c -33.1,0 -60,-26.9 -60,-60 0,-33.1 26.9,-60 60,-60 33.1,0 60,26.9 60,60 0,33.1 -26.9,60 -60,60 l 0,0 z m 0,0" /></g></svg>