<?xml version="1.0" encoding="UTF-8" standalone="no"?>
<svg
   xmlns:dc="http://purl.org/dc/elements/1.1/"
   xmlns:cc="http://creativecommons.org/ns#"
   xmlns:rdf="http://www.w3.org/1999/02/22-rdf-syntax-ns#"
   xmlns:svg="http://www.w3.org/2000/svg"
   xmlns="http://www.w3.org/2000/svg"
   xmlns:xlink="http://www.w3.org/1999/xlink"
   height="391.7023"
   width="340.75861"
   xml:space="preserve"
   viewBox="0 0 340.75861 391.7023"
   y="0px"
   x="0px"
   id="Слой_1"
   version="1.1"><metadata
     id="metadata3355"><rdf:RDF><cc:Work
         rdf:about=""><dc:format>image/svg+xml</dc:format><dc:type
           rdf:resource="http://purl.org/dc/dcmitype/StillImage" /><dc:title></dc:title></cc:Work></rdf:RDF></metadata><defs
     id="defs3353" /><style
     id="style3337"
     type="text/css">
	.st0{clip-path:url(#SVGID_2_);}
</style><g
     transform="translate(-135,-200.1998)"
     id="g3339"><g
       id="g3341"><defs
         id="defs3343"><rect
           height="392.89999"
           width="340.79999"
           y="200"
           x="135"
           id="SVGID_1_" /></defs><clipPath
         id="SVGID_2_"><use
           height="100%"
           width="100%"
           y="0"
           x="0"
           id="use3347"
           style="overflow:visible"
           xlink:href="#SVGID_1_" /></clipPath><path
         id="path3349"
         d="M 324.1,590.8 C 402.7,582 465.6,519.2 474.6,440.6 486.4,337.9 406.5,250.4 306.4,249.3 l 0,-46.1 c 0,-2.6 -3.2,-3.9 -5.4,-2.3 l -94.9,69.7 c -1.6,1.2 -1.6,3.5 0,4.7 L 301,345 c 2.2,1.6 5.4,0.2 5.4,-2.3 l 0,-46 c 70.3,1.1 126.6,61 121.8,132.5 -4.1,61.5 -54.2,111.4 -115.8,115.4 -65.2,4.2 -120.6,-42.4 -130.6,-104 -1.8,-11.4 -11.8,-19.8 -23.4,-19.8 -14.3,0 -25.5,12.7 -23.3,26.9 14.1,87.8 95.1,153.6 189,143.1 l 0,0 z m 0,0"
          /></g></g></svg>