<svg xmlns="http://www.w3.org/2000/svg" xmlns:xlink="http://www.w3.org/1999/xlink" viewBox="0 0 255.84 409.60199">
  <g transform="translate(-178 -191)">
    <defs>
      <path d="M178 191h255.84v410H178z"/>
    </defs>
    <clipPath id="b">
      <use width="100%" height="100%" xlink:href="#a" overflow="visible"/>
    </clipPath>
    <path d="M395.602 191H216.398C195.281 191 178 208.281 178 229.398v332.801c0 21.121 17.281 38.403 38.398 38.403h179.204c21.117 0 38.398-17.282 38.398-38.403V229.398C434 208.281 416.719 191 395.602 191zm-140.801 19.199h102.398V223H254.801v-12.801zM306 575c-14.137 0-25.602-11.461-25.602-25.602 0-14.136 11.465-25.597 25.602-25.597s25.602 11.461 25.602 25.597C331.602 563.539 320.137 575 306 575zm102.398-76.801H203.602v-256h204.796v256zm0 0" />
  </g>
</svg>
