<svg xmlns="http://www.w3.org/2000/svg" xmlns:xlink="http://www.w3.org/1999/xlink"><defs><path id="a" d="M286.9 385.1h37v22.8h-37z"/><path id="a" d="M115 200h380.88v392.88H115z"/><path id="SVGID_1_" d="M259 357h92.9v79.9H259z"/><style>.cls-1{fill-rule:evenodd}</style><path id="a" d="M113 203h385.9v386H113z"/><path id="SVGID_1_" d="M123 297h366v197.9H123z"/><path id="SVGID_1_" d="M213 305h186v183H213z"/><path id="SVGID_1_" d="M135 200h340.8v392.9H135z"/><path id="a" d="M205 296h200.88v201H205z"/><path d="M141 203h328.8v387.8H141z" id="SVGID_1_"/><path id="a" d="M184 327h243.84v138.96H184z"/><path id="a" d="M182 309h247.92v175.92H182z"/></defs><symbol id="arrow-down" viewBox="0 0 36.815434 22.328001"><g transform="translate(-287.084 -385.1)"><path d="M287.084 389.662c0-1.128.418-2.261 1.254-3.144a4.57 4.57 0 0 1 6.453-.164l10.734 10.207 10.66-10.195a4.561 4.561 0 1 1 6.305 6.593l-13.801 13.203a4.564 4.564 0 0 1-6.297.012l-13.89-13.203a4.557 4.557 0 0 1-1.418-3.309zm0 0"/></g></symbol><symbol id="badge" viewBox="0 0 380.33578 391.46011"><g transform="translate(-115 -200.46)"><path d="M490.73 419.029l-7.281-10.078c-6.078-8.321-6.16-19.602-.238-28.082l7.117-10.16c8.32-11.84 4.402-28.239-8.238-35.121l-10.879-5.918c-9.043-4.879-14-15.04-12.242-25.2l2.082-12.32c2.398-14.242-8.16-27.441-22.563-28l-12.32-.562c-10.238-.399-19.039-7.438-21.918-17.36l-3.441-12c-4-13.918-19.2-21.117-32.321-15.359l-11.359 4.961c-9.438 4.078-20.399 1.679-27.199-6.082l-8.239-9.278c-9.601-10.8-26.402-10.64-35.761.239l-8.078 9.441c-6.723 7.758-17.602 10.398-27.122 6.48l-11.441-4.722c-13.281-5.52-28.32 1.922-32.16 15.922l-3.277 12c-2.801 10.078-11.524 17.199-21.684 17.758l-12.316.722c-14.321.801-24.723 14.16-22.082 28.32l2.238 12.239c1.844 10.16-2.957 20.402-11.918 25.359l-10.801 6.082c-12.559 7.039-16.16 23.52-7.68 35.199l7.282 10.079c6.078 8.32 6.16 19.601.238 28.082l-7.277 10.238c-8.321 11.84-4.403 28.242 8.238 35.121l10.879 5.922c9.039 4.879 14 15.039 12.242 25.199l-2 12.16c-2.402 14.238 8.16 27.438 22.559 28l12.32.559c10.238.402 19.039 7.441 21.918 17.359l3.441 12c4 13.922 19.199 21.121 32.321 15.36l11.359-4.958c9.441-4.082 20.402-1.679 27.199 6l8.242 9.278c9.598 10.801 26.399 10.64 35.758-.238l8.082-9.442c6.719-7.758 17.598-10.398 27.121-6.48l11.438 4.722c13.281 5.52 28.32-1.922 32.16-15.922l3.281-12c2.719-9.918 11.442-17.039 21.68-17.679l12.32-.719c14.32-.801 24.719-14.16 22.078-28.402l-2.238-12.239c-1.84-10.16 2.961-20.398 11.918-25.359l10.801-6.082c12.64-6.797 16.242-23.359 7.761-35.039zm-185.601 96.242c-65.918 0-119.359-53.844-119.359-120.242 0-66.399 53.441-120.32 119.359-120.32 65.922 0 119.359 53.839 119.359 120.242 0 66.398-53.437 120.32-119.359 120.32zm0 0"/></g><path d="M260.289 164.17l-44.641-3.28-16.878-41.761c-3.2-7.84-14.239-7.84-17.36 0l-16.879 41.76-44.64 3.282c-8.403.64-11.84 11.2-5.36 16.64l34.16 29.04-10.722 43.758c-2 8.242 6.883 14.8 14.082 10.32l38-23.758 38 23.758c7.117 4.48 16.078-2.078 14.078-10.32L231.41 209.85l34.16-29.04c6.559-5.44 3.121-16-5.281-16.64zm0 0"/></symbol><symbol id="bubble" viewBox="0 0 93 78.900002"><style id="style3337">.st0{clip-path:url(#SVGID_2_)}</style><g transform="translate(-259 -357.1)" id="g3339"><path id="path3341" d="M281.9 384.8h47.2c1.8 0 3.3-1.4 3.3-3.3 0-1.8-1.4-3.3-3.3-3.3h-47.2c-1.8 0-3.3 1.4-3.3 3.3s1.4 3.3 3.3 3.3zm0 0"/><g id="g3343"><clipPath id="SVGID_2_"><use height="100%" width="100%" id="use3349" xlink:href="#SVGID_1_" overflow="visible"/></clipPath><path id="path3351" d="M281.9 400.7h47.2c1.8 0 3.3-1.4 3.3-3.3 0-1.8-1.4-3.3-3.3-3.3h-47.2c-1.8 0-3.3 1.4-3.3 3.3 0 1.8 1.4 3.3 3.3 3.3zm0 0"/><path id="path3353" d="M262.3 421.9h10.6v10.8c0 1.3.7 2.4 1.8 3 .5.2 1 .3 1.4.3.7 0 1.4-.2 2-.6l17.6-13.4h53c1.8 0 3.3-1.4 3.3-3.3v-58.3c0-1.8-1.4-3.3-3.3-3.3h-86.4c-1.8 0-3.3 1.4-3.3 3.3v58.2c0 1.8 1.5 3.3 3.3 3.3zm3.3-58.3h79.8v51.7h-50.7c-.7 0-1.4.2-2 .6L279.4 426v-7.4c0-1.8-1.4-3.3-3.3-3.3h-10.6v-51.7zm0 0"/></g></g></symbol><symbol id="burger" viewBox="0 0 26 18"><path id="menu" class="cls-1" d="M12 25h26v2H12v-2zm0 8h26v2H12v-2zm0 8h26v2H12v-2z" transform="translate(-12 -25)"/></symbol><symbol id="chain" viewBox="0 0 385.79999 385.79999"><g transform="translate(-113 -203)"><path d="M468.8 377.8l-72.4 72.4c-40 40-104.8 40-144.8 0-6.3-6.3-11.2-13.3-15.6-20.6l33.7-33.7c1.6-1.6 3.6-2.5 5.5-3.6 2.3 8 6.4 15.5 12.6 21.7 20 20 52.5 19.9 72.4 0l72.4-72.4c20-20 20-52.4 0-72.4-20-20-52.4-20-72.4 0L334.5 295c-20.9-8.1-43.4-10.3-65.3-7.1L324 233c40-40 104.8-40 144.8 0 40 40 40 104.8 0 144.8zM277.4 496.9l-25.8 25.8c-20 19.9-52.5 19.9-72.4 0-20-20-20-52.4 0-72.4l72.4-72.4c20-20 52.4-20 72.4 0 6.2 6.2 10.3 13.8 12.6 21.7 1.9-1.1 3.9-2 5.5-3.6l33.7-33.6c-4.3-7.3-9.3-14.4-15.6-20.7-40-40-104.8-40-144.8 0L143 414c-40 40-40 104.8 0 144.8 40 40 104.8 40 144.8 0l54.9-54.9c-21.9 3.3-44.5 1.1-65.3-7zm0 0"/></g></symbol><symbol id="eye" viewBox="0 0 365.39999 197.7"><style id="style3337">.st0{clip-path:url(#SVGID_2_)}</style><g transform="translate(-123.1 -297)" id="g3339"><g id="g3341"><clipPath id="SVGID_2_"><use height="100%" width="100%" id="use3347" xlink:href="#SVGID_1_" overflow="visible"/></clipPath><path d="M482.2 387.9c-.7-.9-18.4-23.1-48.8-45.5-40.6-29.8-84.7-45.6-127.6-45.6-42.9 0-87.1 15.8-127.6 45.6-30.4 22.3-48.1 44.5-48.8 45.5l-6.3 7.9 6.3 7.9c.7.9 18.4 23.1 48.8 45.4 40.6 29.8 84.7 45.6 127.6 45.6 42.9 0 87.1-15.8 127.6-45.6 30.4-22.3 48.1-44.5 48.8-45.4l6.3-7.9-6.3-7.9zm-176.5 77.2c-38.2 0-69.3-31.1-69.3-69.3 0-6 .8-11.8 2.2-17.3l-15.8-2.7c-1.6 6.4-2.4 13.1-2.4 20 0 24.7 10.5 47 27.4 62.6-21.6-8-40.1-19.2-53.9-29.4-17.2-12.6-30.1-25.3-37.5-33.2 7.4-7.9 20.3-20.6 37.5-33.2 13.9-10.1 32.3-21.4 53.9-29.4l10.6 12c12.4-11.6 29.1-18.7 47.3-18.7 38.2 0 69.3 31.1 69.3 69.3 0 38.2-31.1 69.3-69.3 69.3zM417.6 429c-13.9 10.1-32.3 21.4-53.9 29.4 16.8-15.6 27.4-37.9 27.4-62.6 0-24.7-10.5-47-27.4-62.6 21.6 8 40.1 19.2 53.9 29.4 17.2 12.6 30.1 25.3 37.5 33.2-7.4 7.9-20.3 20.6-37.5 33.2zm0 0"/></g><path d="M261.6 382.3c-1.3 4.3-2 8.8-2 13.5 0 25.5 20.6 46.1 46.1 46.1s46.1-20.6 46.1-46.1-20.6-46.1-46.1-46.1c-12.4 0-23.7 4.9-31.9 12.9l22.7 25.6-34.9-5.9zm0 0"/></g></symbol><symbol id="gift" viewBox="0 0 19.684 22.473"><path d="M6.379 16.536l-.875-1.418-1.848.332 2.43-4.313H1.348v11.336h8.074V11.137l-3.043 5.399zm0 0M19.668 5.727h-5.359c.312-.16.593-.328.839-.508.954-.683 1.461-1.551 1.457-2.41 0-.703-.332-1.711-.816-2.133A2.75 2.75 0 0 0 13.973 0c-.735 0-1.418.254-2.004.645-.879.59-1.567 1.863-2.055 2.836a6.861 6.861 0 0 0-.074.144c-.18-.375-.391-1.129-.629-1.468-.414-.594-.914-1.121-1.5-1.512S6.445 0 5.711 0a2.8 2.8 0 0 0-1.902.782c-.497.468-.848 1.523-.848 2.273-.004.441.125.902.387 1.32.332.524.859.981 1.59 1.352H0l.012 4.508h9.269V5.727h1.129v4.508h9.274l-.016-4.508zM5.258 4.321c-.371-.239-.602-.473-.735-.684-.132-.211-.179-.582-.179-.762 0-.304.148-.836.418-1.086.261-.25.621-.406.941-.406h.008c.414.004.82.141 1.23.414.614.403 1.192 1.5 1.59 2.305.211.41.371.84.477 1.258-1.856-.192-3.055-.602-3.75-1.039zm6.344-.981c.336-.48.73-1.269 1.14-1.543.406-.273.817-.41 1.231-.414h.004c.343 0 .671.137.898.336.227.203.348.57.348.832-.008.309-.164 1.016-.887 1.543-.68.496-1.867 1.008-3.688 1.363a6.294 6.294 0 0 1 .954-2.117zm0 0M16.039 15.43l-1.848-.312-.871 1.437-3.008-5.344v11.262h8.036V11.137h-4.739l2.43 4.293zm0 0"/></symbol><symbol id="growth" viewBox="0 0 185.89999 182.2"><style id="style4189">.st0{clip-path:url(#SVGID_2_)}</style><g id="g4191"><path id="path4193" d="M79.1 98.3c0-5.8-4.7-10.5-10.5-10.5H57.7c-5.8 0-10.5 4.7-10.5 10.5v73.3c0 5.8 4.7 10.5 10.5 10.5h10.9c5.8 0 10.5-4.7 10.5-10.5V98.3zm0 0"/><path id="path4195" d="M31.9 123.9c0-6.3-5.1-11.3-11.3-11.3h-9.3C5 112.6 0 117.7 0 123.9v46.9c0 6.3 5.1 11.3 11.3 11.3h9.3c6.3 0 11.3-5.1 11.3-11.3v-46.9zm0 0"/><g id="g4197" transform="translate(-213.1 -305)"><clipPath id="SVGID_2_"><use height="100%" width="100%" id="use4203" xlink:href="#SVGID_1_" overflow="visible"/></clipPath><path d="M338.6 375.3c0-5.8-4.7-10.5-10.5-10.5h-10.9c-5.8 0-10.5 4.7-10.5 10.5v101.3c0 5.8 4.7 10.5 10.5 10.5h10.9c5.8 0 10.5-4.7 10.5-10.5V375.3zm0 0M397.3 334.9l-20.5-26.3c-1.8-2.3-4.3-3.6-6.9-3.6-2.6 0-5.1 1.3-6.9 3.6l-20.5 26.3c-1.8 2.3-2.2 4.7-1.2 6.8 1.1 2.3 3.7 3.6 7.1 3.6h5.5V477c0 5.8 4.7 10.2 10.5 10.2h11c5.8 0 10.4-4.4 10.4-10.2V345.2l5.6.1c3.3 0 6-1.3 7.1-3.6 1-2.1.5-4.5-1.2-6.8zm0 0"/></g></g></symbol><symbol id="like" viewBox="-49 141 450.88702 512.00104"><path d="M296.68 261.229h30.059c8.307 0 15.03-6.722 15.03-15.03 0-8.307-6.722-15.03-15.03-15.03H296.68c-8.307 0-15.03 6.722-15.03 15.03s6.723 15.03 15.03 15.03zM147.97 192.804c3.708 7.397 12.69 10.436 20.167 6.722 7.427-3.713 10.436-12.74 6.722-20.167l-15.03-30.059c-3.742-7.427-12.74-10.406-20.167-6.722-7.427 3.713-10.436 12.74-6.722 20.167l15.03 30.059zM244.869 199.526a15.042 15.042 0 0 0 20.167-6.722l15.03-30.059c3.713-7.427.704-16.453-6.722-20.167-7.398-3.684-16.453-.704-20.167 6.722l-15.03 30.059c-3.713 7.427-.705 16.454 6.722 20.167zM86.266 261.229h30.059c8.307 0 15.03-6.722 15.03-15.03 0-8.307-6.722-15.03-15.03-15.03H86.266c-8.307 0-15.03 6.722-15.03 15.03.001 8.308 6.723 15.03 15.03 15.03zM26.148 382.468H-33.97c-8.3 0-15.03 6.729-15.03 15.03V637.97c0 8.3 6.729 15.03 15.03 15.03h60.118c8.3 0 15.03-6.729 15.03-15.03V397.497c-.001-8.3-6.729-15.029-15.03-15.029zM401.588 422.308c-2.651-23.315-24.43-39.84-47.895-39.84H236.519c9.958-17.831 15.303-68.264 15.066-88.866-.393-34.102-28.634-61.43-62.737-61.43h-12.404c-8.307 0-15.03 6.722-15.03 15.03 0 34.755-13.533 97.487-39.056 123.011-17.179 17.179-31.865 23.404-51.122 33.028v225.518c29.483 9.827 66.917 24.242 123.974 24.242h98.316c32.395 0 57.625-30.003 45.072-61.703 19.125-5.21 33.229-22.75 33.229-43.504 0-5.857-1.13-11.463-3.17-16.615 32.229-8.781 44.092-48.576 21.723-73.563 8.219-9.181 12.751-21.739 11.208-35.308z"/></symbol><symbol id="reload" viewBox="0 0 340.75861 391.7023"><style id="style3337">.st0{clip-path:url(#SVGID_2_)}</style><g transform="translate(-135 -200.2)" id="g3339"><g id="g3341"><clipPath id="SVGID_2_"><use height="100%" width="100%" id="use3347" xlink:href="#SVGID_1_" overflow="visible"/></clipPath><path id="path3349" d="M324.1 590.8c78.6-8.8 141.5-71.6 150.5-150.2 11.8-102.7-68.1-190.2-168.2-191.3v-46.1c0-2.6-3.2-3.9-5.4-2.3l-94.9 69.7c-1.6 1.2-1.6 3.5 0 4.7L301 345c2.2 1.6 5.4.2 5.4-2.3v-46c70.3 1.1 126.6 61 121.8 132.5-4.1 61.5-54.2 111.4-115.8 115.4-65.2 4.2-120.6-42.4-130.6-104-1.8-11.4-11.8-19.8-23.4-19.8-14.3 0-25.5 12.7-23.3 26.9 14.1 87.8 95.1 153.6 189 143.1zm0 0"/></g></g></symbol><symbol id="searcher" viewBox="0 0 200.24925 200.24925"><g transform="translate(-205 -296)"><path d="M400.348 467.684l-43.504-43.504c-.231-.23-.5-.391-.742-.605 8.558-12.985 13.554-28.532 13.554-45.246 0-45.469-36.859-82.329-82.328-82.329S205 332.86 205 378.329c0 45.468 36.859 82.328 82.328 82.328 16.715 0 32.258-4.996 45.242-13.555.215.242.375.512.61.742l43.504 43.504c6.535 6.535 17.128 6.535 23.664 0 6.535-6.535 6.535-17.129 0-23.664zm-113.02-35.566c-29.707 0-53.789-24.082-53.789-53.789 0-29.708 24.082-53.79 53.789-53.79s53.789 24.082 53.789 53.79c0 29.707-24.082 53.789-53.789 53.789zm0 0"/></g></symbol><symbol id="smartphone" viewBox="0 0 255.84 409.60199"><path d="M217.602 0H38.398C17.281 0 0 17.281 0 38.398v332.801c0 21.121 17.281 38.403 38.398 38.403h179.204c21.117 0 38.398-17.282 38.398-38.403V38.398C256 17.281 238.719 0 217.602 0zM76.801 19.199h102.398V32H76.801V19.199zM128 384c-14.137 0-25.602-11.461-25.602-25.602 0-14.136 11.465-25.597 25.602-25.597s25.602 11.461 25.602 25.597C153.602 372.539 142.137 384 128 384zm102.398-76.801H25.602v-256h204.796v256zm0 0"/></symbol><symbol id="star" viewBox="0 0 222.76527 213.42934"><path d="M221.984 80.356a16 16 0 0 0-12.918-10.891l-57.582-8.367-25.754-52.18a15.999 15.999 0 0 0-28.695 0l-25.754 52.18-57.582 8.367a16.003 16.003 0 0 0-8.867 27.293L46.5 137.371l-9.836 57.352a15.998 15.998 0 0 0 6.367 15.648 15.986 15.986 0 0 0 16.848 1.219l51.504-27.078 51.504 27.078a15.987 15.987 0 0 0 7.445 1.836 15.994 15.994 0 0 0 15.77-18.703l-9.836-57.352 41.668-40.613a16.007 16.007 0 0 0 4.05-16.402zm-74.078 39.973a16 16 0 0 0-4.601 14.16l5.777 33.687-30.254-15.902a15.971 15.971 0 0 0-14.89 0L73.684 168.18l5.777-33.687a15.991 15.991 0 0 0-4.602-14.164L50.383 96.473l33.824-4.918a15.996 15.996 0 0 0 12.047-8.75l15.129-30.652 15.129 30.652a15.996 15.996 0 0 0 12.047 8.75l33.824 4.918-24.477 23.856zm0 0"/></symbol><symbol id="twitter" viewBox="0 0 12.801 10.398"><path d="M12.801 1.23a5.247 5.247 0 0 1-1.508.415c.543-.325.957-.84 1.156-1.454-.508.301-1.07.52-1.672.637a2.626 2.626 0 0 0-4.472 2.395A7.455 7.455 0 0 1 .891.48a2.621 2.621 0 0 0 .812 3.504 2.586 2.586 0 0 1-1.187-.328v.032c0 1.273.906 2.335 2.105 2.578a2.71 2.71 0 0 1-1.187.043 2.635 2.635 0 0 0 2.453 1.824A5.277 5.277 0 0 1 .625 9.254c-.211 0-.418-.012-.625-.035a7.432 7.432 0 0 0 4.027 1.179c4.828 0 7.469-4 7.469-7.468l-.008-.34a5.29 5.29 0 0 0 1.313-1.36zm0 0"/></symbol><symbol id="user" viewBox="0 0 328.5564 386.20001"><style id="style3337">.st0{clip-path:url(#SVGID_2_)}</style><clipPath id="SVGID_2_"><use height="100%" width="100%" id="use3343" overflow="visible" xlink:href="#SVGID_1_"/></clipPath><path id="path3345" d="M162.83 208.2h2.6c23.4-.4 42.4-8.6 56.4-24.4 30.8-34.7 25.7-94.2 25.1-99.9-2-42.6-22.2-63-38.8-72.6-12.4-7.1-26.9-11-43-11.3h-1.4c-8.9 0-26.3 1.4-43 11-16.8 9.5-37.3 29.9-39.3 72.9-.6 5.7-5.7 65.2 25.1 99.9 13.9 15.8 32.9 24 56.3 24.4zm-60.1-122.3c0-.2.1-.5.1-.6 2.6-57.4 43.4-63.5 60.8-63.5h1c21.6.5 58.3 9.3 60.8 63.5 0 .2 0 .5.1.6.1.6 5.7 55-19.8 83.6-10.1 11.4-23.5 17-41.2 17.1h-.8c-17.6-.2-31.1-5.8-41.1-17.1-25.4-28.5-20-83.1-19.9-83.6zm0 0"/><path id="path3347" d="M328.53 306.9v-.2c0-.6-.1-1.3-.1-2-.5-15.8-1.5-52.9-36.2-64.7-.2-.1-.6-.2-.8-.2-36.1-9.2-66.1-30-66.4-30.2-4.9-3.4-11.6-2.2-15 2.6-3.4 4.9-2.2 11.6 2.6 15 1.4 1 33.2 23.1 73 33.4 18.6 6.6 20.7 26.6 21.3 44.8 0 .7 0 1.4.1 2 .1 7.2-.4 18.3-1.7 24.7-13 7.4-63.8 32.8-141 32.8-77 0-128.1-25.5-141.1-32.9-1.3-6.4-1.8-17.5-1.7-24.7 0-.6.1-1.3.1-2 .6-18.2 2.6-38.2 21.3-44.8 39.8-10.2 71.7-32.5 73-33.4 4.9-3.4 6.1-10.2 2.6-15-3.4-4.9-10.2-6.1-15-2.6-.3.2-30.2 21-66.4 30.2-.3.1-.6.2-.8.2-34.7 11.9-35.8 49-36.2 64.7 0 .7 0 1.4-.1 2v.2c-.1 4.2-.2 25.5 4.1 36.2.8 2.1 2.2 3.8 4.2 5 2.4 1.6 59.9 38.2 156.2 38.2 96.3 0 153.8-36.7 156.2-38.2 1.8-1.2 3.4-3 4.2-5 3.7-10.5 3.7-31.9 3.6-36.1zm0 0"/></symbol><symbol id="vk" viewBox="0 0 243.48854 137.7917"><g transform="translate(-184 -327.208)"><path d="M393.555 414.821c8.078 7.887 16.601 15.305 23.847 23.989 3.2 3.855 6.231 7.836 8.547 12.312 3.285 6.363.309 13.367-5.398 13.75l-35.469-.019c-9.152.761-16.449-2.922-22.586-9.176-4.91-5.004-9.461-10.328-14.18-15.5-1.937-2.113-3.964-4.102-6.386-5.672-4.84-3.145-9.043-2.184-11.813 2.867-2.816 5.137-3.457 10.824-3.734 16.551-.379 8.351-2.903 10.547-11.293 10.93-17.934.847-34.949-1.868-50.758-10.911-13.937-7.976-24.746-19.234-34.152-31.976-18.317-24.82-32.344-52.09-44.95-80.121-2.839-6.317-.761-9.707 6.208-9.828 11.57-.223 23.14-.207 34.726-.016 4.703.07 7.816 2.766 9.633 7.211 6.262 15.394 13.922 30.039 23.539 43.617 2.559 3.613 5.172 7.227 8.891 9.774 4.113 2.816 7.242 1.882 9.179-2.7 1.227-2.906 1.766-6.035 2.043-9.148.914-10.707 1.035-21.395-.57-32.063-.988-6.66-4.738-10.968-11.383-12.23-3.391-.641-2.887-1.902-1.242-3.84 2.848-3.336 5.531-5.414 10.875-5.414h40.09c6.312 1.246 7.715 4.082 8.578 10.43l.035 44.531c-.07 2.461 1.227 9.754 5.656 11.383 3.543 1.156 5.879-1.68 8.004-3.926 9.598-10.187 16.449-22.227 22.57-34.691 2.715-5.485 5.051-11.176 7.313-16.864 1.68-4.222 4.309-6.297 9.063-6.207l38.585.035c1.141 0 2.301.016 3.407.207 6.504 1.11 8.285 3.907 6.277 10.254-3.164 9.961-9.32 18.262-15.34 26.602-6.433 8.902-13.316 17.5-19.695 26.457-5.863 8.18-5.399 12.301 1.883 19.402zm0 0" clip-rule="evenodd" fill-rule="evenodd"/></g></symbol><symbol id="youtube" viewBox="0 0 247.92 174.53101"><g transform="translate(-182 -309.427)"><path d="M420.332 324.408c-8.949-10.641-25.477-14.981-57.043-14.981H248.707c-32.285 0-49.094 4.621-58.012 15.949C182 336.423 182 352.701 182 375.228v42.934c0 43.64 10.316 65.796 66.707 65.796h114.582c27.375 0 42.543-3.828 52.356-13.218C425.707 461.107 430 445.384 430 418.162v-42.934c0-23.758-.672-40.129-9.668-50.82zm-79.113 78.215l-52.031 27.191a7.998 7.998 0 0 1-11.708-7.09v-54.211a7.995 7.995 0 0 1 3.848-6.836 7.99 7.99 0 0 1 7.84-.262l52.031 27.016a8.003 8.003 0 0 1 .02 14.192zm0 0"/></g></symbol></svg>