<?xml version="1.0" encoding="UTF-8" standalone="no"?>
<svg
   xmlns:dc="http://purl.org/dc/elements/1.1/"
   xmlns:cc="http://creativecommons.org/ns#"
   xmlns:rdf="http://www.w3.org/1999/02/22-rdf-syntax-ns#"
   xmlns:svg="http://www.w3.org/2000/svg"
   xmlns="http://www.w3.org/2000/svg"
   xmlns:xlink="http://www.w3.org/1999/xlink"
   height="353.1431"
   width="362.39999"
   xml:space="preserve"
   viewBox="0 0 362.39999 353.1431"
   y="0px"
   x="0px"
   id="Слой_1"
   version="1.1"><metadata
     id="metadata3355"><rdf:RDF><cc:Work
         rdf:about=""><dc:format>image/svg+xml</dc:format><dc:type
           rdf:resource="http://purl.org/dc/dcmitype/StillImage" /><dc:title></dc:title></cc:Work></rdf:RDF></metadata><defs
     id="defs3353" /><style
     id="style3337"
     type="text/css">
	.st0{clip-path:url(#SVGID_2_);}
</style><g
     transform="translate(-124,-219.85689)"
     id="g3339"><g
       id="g3341"><defs
         id="defs3343"><rect
           height="355"
           width="362.89999"
           y="219"
           x="124"
           id="SVGID_1_" /></defs><clipPath
         id="SVGID_2_"><use
           height="100%"
           width="100%"
           y="0"
           x="0"
           id="use3347"
           style="overflow:visible"
           xlink:href="#SVGID_1_" /></clipPath><path
         id="path3349"
         d="m 460.1,303.4 -112,0 39.8,-65.3 c 3.4,-5.7 1.7,-13 -4,-16.5 -5.7,-3.4 -13,-1.7 -16.5,4 l -47.4,77.8 -29.5,0 -47.5,-77.8 c -3.4,-5.7 -10.8,-7.4 -16.5,-4 -5.7,3.5 -7.4,10.8 -4,16.5 l 39.8,65.3 -112,0 c -14.5,0 -26.3,11.8 -26.3,26.3 l 0,217 c 0,14.5 11.8,26.3 26.3,26.3 l 309.8,0 c 14.5,0 26.3,-11.8 26.3,-26.3 l 0,-217 c 0,-14.5 -11.8,-26.3 -26.3,-26.3 l 0,0 z m -82,211.8 c 0,7.9 -6.4,14.3 -14.3,14.3 l -182.9,0 c -7.9,0 -14.3,-6.4 -14.3,-14.3 l 0,-154 c 0,-7.9 6.4,-14.3 14.3,-14.3 l 182.9,0 c 7.9,0 14.3,6.4 14.3,14.3 l 0,154 z m 52.9,-4.6 c -13.7,0 -24.8,-11.1 -24.8,-24.8 0,-13.7 11.2,-24.8 24.8,-24.8 13.7,0 24.8,11.1 24.8,24.8 0,13.7 -11.1,24.8 -24.8,24.8 l 0,0 z m 0,-95.2 c -13.7,0 -24.8,-11.1 -24.8,-24.8 0,-13.7 11.1,-24.8 24.8,-24.8 13.7,0 24.8,11.1 24.8,24.8 0,13.7 -11.1,24.8 -24.8,24.8 l 0,0 z m 0,0"
          /></g></g></svg>