<?xml version="1.0" encoding="UTF-8" standalone="no"?>
<svg
   xmlns:dc="http://purl.org/dc/elements/1.1/"
   xmlns:cc="http://creativecommons.org/ns#"
   xmlns:rdf="http://www.w3.org/1999/02/22-rdf-syntax-ns#"
   xmlns:svg="http://www.w3.org/2000/svg"
   xmlns="http://www.w3.org/2000/svg"
   xmlns:xlink="http://www.w3.org/1999/xlink"
   height="386.20001"
   width="328.5564"
   version="1.1"
   viewBox="0 0 328.5564 386.20001"
   id="Слой_1">
  <metadata
     id="metadata3351">
    <rdf:RDF>
      <cc:Work
         rdf:about="">
        <dc:format>image/svg+xml</dc:format>
        <dc:type
           rdf:resource="http://purl.org/dc/dcmitype/StillImage" />
        <dc:title></dc:title>
      </cc:Work>
    </rdf:RDF>
  </metadata>
  <style
     id="style3337">
    .st0{clip-path:url(#SVGID_2_);}
  </style>
  <defs
     id="defs3339">
    <path
       d="m 141,203 328.8,0 0,387.8 -328.8,0 z"
       id="SVGID_1_" />
  </defs>
  <clipPath
     id="SVGID_2_">
    <use
       height="100%"
       width="100%"
       y="0"
       x="0"
       style="overflow:visible"
       id="use3343"
       overflow="visible"
       xlink:href="#SVGID_1_" />
  </clipPath>
  <path
     id="path3345"
     d="m 162.83015,208.2 2.6,0 c 23.4,-0.4 42.4,-8.6 56.4,-24.4 30.8,-34.7 25.7,-94.2 25.1,-99.9 -2,-42.6 -22.2,-63 -38.8,-72.6 -12.4,-7.1 -26.9,-11 -43,-11.3 l -1.4,0 c -8.9,0 -26.3,1.4 -43,11 -16.8,9.5 -37.299999,29.9 -39.299999,72.9 -0.6,5.7 -5.7,65.2 25.099999,99.9 13.9,15.8 32.9,24 56.3,24.4 z m -60.1,-122.3 c 0,-0.2 0.1,-0.5 0.1,-0.6 2.6,-57.4 43.4,-63.5 60.8,-63.5 l 1,0 c 21.6,0.5 58.3,9.3 60.8,63.5 0,0.2 0,0.5 0.1,0.6 0.1,0.6 5.7,55 -19.8,83.6 -10.1,11.4 -23.5,17 -41.2,17.1 l -0.8,0 c -17.6,-0.2 -31.1,-5.8 -41.1,-17.1 -25.399999,-28.5 -20,-83.1 -19.9,-83.6 z m 0,0" />
  <path
     id="path3347"
     d="m 328.53015,306.9 0,-0.2 c 0,-0.6 -0.1,-1.3 -0.1,-2 -0.5,-15.8 -1.5,-52.9 -36.2,-64.7 -0.2,-0.1 -0.6,-0.2 -0.8,-0.2 -36.1,-9.2 -66.1,-30 -66.4,-30.2 -4.9,-3.4 -11.6,-2.2 -15,2.6 -3.4,4.9 -2.2,11.6 2.6,15 1.4,1 33.2,23.1 73,33.4 18.6,6.6 20.7,26.6 21.3,44.8 0,0.7 0,1.4 0.1,2 0.1,7.2 -0.4,18.3 -1.7,24.7 -13,7.4 -63.8,32.8 -141,32.8 -76.999999,0 -128.099999,-25.5 -141.099999,-32.9 -1.3,-6.4 -1.8,-17.5 -1.7,-24.7 0,-0.6 0.1,-1.3 0.1,-2 0.6,-18.2 2.6,-38.2 21.3,-44.8 39.8,-10.2 71.699999,-32.5 72.999999,-33.4 4.9,-3.4 6.1,-10.2 2.6,-15 -3.4,-4.9 -10.2,-6.1 -15,-2.6 -0.3,0.2 -30.199999,21 -66.399999,30.2 -0.3,0.1 -0.6,0.2 -0.8,0.2 -34.6999999,11.9 -35.79999987,49 -36.19999987,64.7 0,0.7 0,1.4 -0.1,2 l 0,0.2 c -0.1,4.2 -0.2,25.5 4.09999997,36.2 0.8,2.1 2.2,3.8 4.2,5 2.3999999,1.6 59.8999999,38.2 156.1999989,38.2 96.3,0 153.8,-36.7 156.2,-38.2 1.8,-1.2 3.4,-3 4.2,-5 3.7,-10.5 3.7,-31.9 3.6,-36.1 z m 0,0" />
</svg>
