<?xml version="1.0" encoding="UTF-8" standalone="no"?>
<svg
   xmlns:dc="http://purl.org/dc/elements/1.1/"
   xmlns:cc="http://creativecommons.org/ns#"
   xmlns:rdf="http://www.w3.org/1999/02/22-rdf-syntax-ns#"
   xmlns:svg="http://www.w3.org/2000/svg"
   xmlns="http://www.w3.org/2000/svg"
   xmlns:xlink="http://www.w3.org/1999/xlink"
   height="174.53101"
   width="247.92"
   xml:space="preserve"
   viewBox="0 0 247.92 174.53101"
   y="0px"
   x="0px"
   id="Слой_1"
   version="1.1"><metadata
     id="metadata4180"><rdf:RDF><cc:Work
         rdf:about=""><dc:format>image/svg+xml</dc:format><dc:type
           rdf:resource="http://purl.org/dc/dcmitype/StillImage" /><dc:title></dc:title></cc:Work></rdf:RDF></metadata><defs
     id="defs4178" /><g
     transform="translate(-182,-309.427)"
     id="g4164"><g
       id="g4166"><defs
         id="defs4168"><rect
           height="175.92"
           width="247.92"
           y="309"
           x="182"
           id="SVGID_1_" /></defs><clipPath
         id="SVGID_2_"><use
           height="100%"
           width="100%"
           y="0"
           x="0"
           id="use4172"
           style="overflow:visible"
           xlink:href="#SVGID_1_" /></clipPath><path
         d="m 420.332,324.408 c -8.949,-10.641 -25.477,-14.981 -57.043,-14.981 l -114.582,0 c -32.285,0 -49.094,4.621 -58.012,15.949 C 182,336.423 182,352.701 182,375.228 l 0,42.934 c 0,43.64 10.316,65.796 66.707,65.796 l 114.582,0 c 27.375,0 42.543,-3.828 52.356,-13.218 C 425.707,461.107 430,445.384 430,418.162 l 0,-42.934 c 0,-23.758 -0.672,-40.129 -9.668,-50.82 l 0,0 z m -79.113,78.215 -52.031,27.191 c -1.165,0.609 -2.438,0.91 -3.708,0.91 -1.437,0 -2.875,-0.387 -4.144,-1.156 -2.395,-1.449 -3.856,-4.047 -3.856,-6.844 l 0,-54.211 c 0,-2.793 1.458,-5.387 3.848,-6.836 2.391,-1.453 5.36,-1.551 7.84,-0.262 l 52.031,27.016 c 2.645,1.375 4.309,4.106 4.313,7.09 0.004,2.984 -1.653,5.719 -4.293,7.102 l 0,0 z m 0,0" /></g></g></svg>